<svg width="48" height="48" viewBox="0 0 48 48" fill="none" xmlns="http://www.w3.org/2000/svg">
<path opacity="0.5" d="M47.9883 0.324265L36.244 44.1993C36.1843 44.3985 35.9454 44.4582 35.8061 44.3188L27.9434 36.452L33.8354 14.4647C33.8952 14.2655 33.716 14.0863 33.517 14.146L11.5412 20.0412L3.71827 12.2141C3.57893 12.0747 3.63864 11.8357 3.8377 11.776L47.6698 0.00560861C47.8689 -0.0342235 48.048 0.145021 47.9883 0.324265Z" fill="#00B37E"></path>
<path opacity="0.5" d="M27.9438 36.4523L24.9181 47.8045C24.8584 48.0036 24.6195 48.0634 24.4802 47.924L0.0759393 23.5268C-0.0633999 23.3874 -0.00368337 23.1484 0.195373 23.0887L11.5416 20.0415L27.9438 36.4523Z" fill="#00B37E"></path>
<path d="M33.8355 14.4645L27.9434 36.4518L11.5413 20.041L33.517 14.1458C33.7161 14.0861 33.8952 14.2653 33.8355 14.4645Z" fill="#00B37E"></path>
</svg>