<svg width="237" height="34" viewBox="0 0 237 34" fill="none" xmlns="http://www.w3.org/2000/svg">
<path d="M0.00165599 3.11158C-0.0106824 2.77351 0.0460742 2.4379 0.166991 2.12451C0.287907 1.81111 0.470515 1.5298 0.702477 1.29537C1.24043 0.826509 1.91658 0.572338 2.61493 0.572338C3.31328 0.572338 3.98943 0.828977 4.52738 1.29537C4.75687 1.53473 4.93948 1.81852 5.06287 2.13191C5.18625 2.44531 5.25041 2.78091 5.25041 3.12145C5.25041 3.46199 5.18625 3.79759 5.06287 4.11099C4.93948 4.42439 4.75687 4.70817 4.52738 4.94753C3.99189 5.41639 3.31822 5.67056 2.61986 5.67056C1.92151 5.67056 1.24783 5.41392 0.712348 4.94753C0.480386 4.71064 0.29531 4.42438 0.174394 4.10852C0.0534772 3.79019 -0.00574704 3.45212 0.00165599 3.11158ZM4.96169 26.2584H0.273101V7.86186H4.96169V26.2584Z" fill="white"/>
<path d="M8.01177 16.9727C8.01177 14.1201 8.69779 11.8276 10.0673 10.0904C10.7089 9.24641 11.548 8.57027 12.5104 8.11621C13.4727 7.66216 14.5314 7.44501 15.5949 7.48449C16.5031 7.4376 17.4112 7.60294 18.2452 7.96569C19.0793 8.32843 19.8147 8.88119 20.3971 9.57461L20.5969 7.82256H25.135V25.7725C25.172 27.2654 24.7821 28.7361 24.0147 30.0193C23.262 31.2236 22.1664 32.181 20.8684 32.7708C19.3754 33.4272 17.7566 33.748 16.1255 33.711C14.7485 33.711 13.3864 33.4321 12.118 32.8991C10.9681 32.4623 9.95137 31.7344 9.17158 30.7892L11.3802 27.7688C11.9378 28.4252 12.6337 28.9508 13.4185 29.3111C14.2032 29.6714 15.0595 29.854 15.9232 29.8491C17.0583 29.9132 18.1737 29.5332 19.0275 28.7904C19.41 28.3931 19.7061 27.9243 19.8961 27.4085C20.0861 26.8928 20.1651 26.345 20.1305 25.7971V24.8027C19.563 25.4418 18.8622 25.9452 18.0725 26.2808C17.2853 26.6164 16.4315 26.7719 15.5752 26.7373C14.5215 26.7645 13.4752 26.5424 12.5252 26.0859C11.5751 25.6293 10.7509 24.9557 10.1167 24.1191C8.72 22.3671 8.03151 20.0302 8.03151 17.1775V16.9678H8.00684L8.01177 16.9727ZM13.0088 17.3281C12.9323 18.7198 13.2901 20.1017 14.0354 21.2838C14.3389 21.7403 14.7559 22.1154 15.2445 22.3671C15.7356 22.6188 16.281 22.7446 16.8337 22.7273C17.4852 22.7718 18.1342 22.6385 18.7116 22.3374C19.2891 22.0389 19.7727 21.5873 20.1083 21.032V13.207C19.7826 12.6543 19.3063 12.2002 18.7338 11.9016C18.1613 11.603 17.5173 11.4673 16.8732 11.5117C16.313 11.4945 15.7603 11.6203 15.2643 11.877C14.7683 12.1336 14.3488 12.5136 14.0452 12.98C13.3568 13.9547 13.0088 15.3983 13.0088 17.3281Z" fill="white"/>
<path d="M33.098 7.83259L33.2559 10.0288C33.8877 9.20462 34.6995 8.54328 35.6274 8.10157C36.5552 7.65985 37.5744 7.44517 38.5985 7.48218C40.5677 7.48218 42.0359 8.07936 42.9885 9.27125C43.941 10.4656 44.4444 12.2078 44.474 14.5644V26.814H39.5115V14.6829C39.5855 13.8414 39.3388 13.0024 38.8279 12.3386C38.5145 12.0696 38.1518 11.8672 37.7594 11.7414C37.3671 11.6155 36.9574 11.5711 36.5478 11.6106C35.9111 11.5859 35.2794 11.7414 34.7267 12.0647C34.1739 12.3855 33.7174 12.8593 33.4139 13.4318V26.8016H28.4514V7.84493L33.098 7.83259Z" fill="white"/>
<path d="M47.5118 3.11149C47.4994 2.77342 47.5636 2.43781 47.6968 2.12442C47.8301 1.81102 48.03 1.52971 48.2866 1.29281C48.8813 0.826417 49.6315 0.569778 50.4039 0.569778C51.1763 0.569778 51.924 0.826417 52.5211 1.29281C53.0295 1.77894 53.3133 2.43534 53.3133 3.11889C53.3133 3.80244 53.0295 4.45884 52.5211 4.94497C51.9289 5.41137 51.1812 5.668 50.4113 5.668C49.6414 5.668 48.8936 5.41137 48.3014 4.94497C48.0448 4.70808 47.8424 4.42183 47.7067 4.10596C47.571 3.7901 47.5068 3.45203 47.5167 3.11149H47.5118ZM52.9949 26.2608H47.8153V7.86177H52.9949V26.2583V26.2608Z" fill="white"/>
<path d="M62.4536 3.33374V7.94583H65.5604V11.6227H62.4536V21.0048C62.4043 21.5353 62.5449 22.0684 62.8484 22.5002C63.0508 22.6779 63.2852 22.8087 63.5394 22.8876C63.7936 22.9641 64.0601 22.9863 64.3217 22.9493C64.7979 22.9518 65.2717 22.9148 65.743 22.8358V26.6385C64.7905 26.9396 63.7985 27.0901 62.804 27.0876C59.406 27.0876 57.6762 25.3134 57.6145 21.7673V11.6449H54.9716V7.96804H57.6145V3.35595H62.4561V3.33127L62.4536 3.33374Z" fill="white"/>
<path d="M76.4873 27.0804C75.2485 27.1273 74.0122 26.9274 72.8499 26.4906C71.6901 26.0538 70.629 25.3876 69.7283 24.5313C67.9886 22.831 67.1224 20.5731 67.1224 17.7328V17.2393C67.0879 15.4823 67.4654 13.7426 68.2205 12.1583C68.8991 10.7246 69.98 9.52037 71.3323 8.6937C72.7191 7.86949 74.3083 7.44999 75.9222 7.47467C78.4984 7.47467 80.5417 8.289 82.0198 9.9226C83.4979 11.5562 84.2456 13.8635 84.2456 16.8518V18.9074H72.2354C72.3465 20.045 72.8696 21.1012 73.7086 21.8785C74.5674 22.6312 75.6803 23.0284 76.8204 22.989C77.6915 23.0284 78.5626 22.8557 79.3522 22.488C80.1444 22.1203 80.8353 21.5651 81.3683 20.8742L83.8434 23.6552C83.0636 24.7509 82.0025 25.617 80.7736 26.1624C79.4312 26.7867 77.9679 27.1001 76.4873 27.0779V27.0804ZM75.8925 11.5661C75.4385 11.5488 74.9869 11.6302 74.5674 11.8054C74.1479 11.9806 73.7728 12.2422 73.4644 12.5778C72.7882 13.4094 72.3761 14.4237 72.2774 15.4897H79.2831V15.085C79.3226 14.1325 78.9994 13.1972 78.375 12.4767C78.0518 12.1633 77.6668 11.9214 77.2448 11.766C76.8229 11.6105 76.3737 11.5414 75.9246 11.5685H75.895L75.8925 11.5661Z" fill="white"/>
<path d="M97.7711 26.2587H92.8135V9.15527e-05H97.7711V26.2587Z" fill="white"/>
<path d="M112.209 26.2587C111.982 25.8145 111.817 25.2617 111.713 24.6004C110.517 25.9329 108.962 26.6017 107.047 26.6017C105.236 26.6017 103.733 26.0785 102.544 25.0298C101.352 23.981 100.757 22.6583 100.757 21.0642C100.757 19.1049 101.482 17.5996 102.936 16.5508C104.389 15.5021 106.489 14.9715 109.236 14.9616H111.509V13.9005C111.509 13.0467 111.289 12.3607 110.85 11.8499C110.41 11.3366 109.72 11.08 108.772 11.08C107.94 11.08 107.286 11.2799 106.815 11.6796C106.341 12.0794 106.107 12.6247 106.107 13.3206H101.167C101.167 12.2497 101.497 11.2577 102.159 10.3471C102.82 9.43651 103.755 8.72088 104.962 8.20267C106.169 7.68446 107.526 7.42535 109.031 7.42535C111.311 7.42535 113.12 7.99785 114.46 9.14285C115.8 10.2879 116.469 11.8993 116.469 13.9721V21.9896C116.481 23.7441 116.725 25.0717 117.204 25.9724V26.2636H112.212L112.209 26.2587ZM108.123 22.8237C108.851 22.8237 109.525 22.6608 110.139 22.3375C110.753 22.0118 111.21 21.5775 111.506 21.0297V17.8488H109.66C107.188 17.8488 105.87 18.7026 105.712 20.4127L105.695 20.7039C105.695 21.3184 105.912 21.8267 106.344 22.2265C106.778 22.6263 107.37 22.8261 108.123 22.8261V22.8237Z" fill="white"/>
<path d="M136.58 17.1826C136.58 20.1463 135.948 22.4561 134.682 24.1143C133.417 25.7726 131.65 26.6018 129.382 26.6018C127.376 26.6018 125.774 25.8318 124.577 24.2945L124.355 26.2612H119.911V0.000183105H124.851V9.41931C125.991 8.08677 127.489 7.41803 129.347 7.41803C131.603 7.41803 133.372 8.24717 134.655 9.90545C135.939 11.5637 136.578 13.8982 136.578 16.9063V17.1802L136.58 17.1826ZM131.64 16.8248C131.64 14.9568 131.344 13.5922 130.751 12.7309C130.159 11.8697 129.276 11.4403 128.101 11.4403C126.529 11.4403 125.446 12.0844 124.854 13.3725V20.6719C125.458 21.9699 126.551 22.6214 128.136 22.6214C129.72 22.6214 130.779 21.8342 131.282 20.2623C131.521 19.5097 131.64 18.3647 131.64 16.8248Z" fill="white"/>
<path d="M164.51 17.501H162.227V22.0316H160.179V10.2509H164.322C165.682 10.2509 166.731 10.5569 167.471 11.1665C168.211 11.776 168.579 12.6594 168.579 13.8143C168.579 14.6015 168.389 15.2628 168.009 15.7934C167.629 16.3264 167.098 16.7335 166.42 17.0198L169.065 21.9255V22.0316H166.871L164.507 17.501H164.51ZM162.227 15.8501H164.332C165.023 15.8501 165.561 15.6749 165.951 15.327C166.341 14.979 166.533 14.5028 166.533 13.8982C166.533 13.2936 166.353 12.7779 165.995 12.4324C165.637 12.0869 165.102 11.9092 164.389 11.8994H162.227V15.8476V15.8501Z" fill="#C4C4CC"/>
<path d="M179.067 16.773H174.228V20.398H179.883V22.0316H172.179V10.2509H179.827V11.9018H174.228V15.1542H179.067V16.773Z" fill="#C4C4CC"/>
<path d="M189.804 19.2901H185.238L184.283 22.0341H182.156L186.608 10.2509H188.444L192.903 22.0341H190.766L189.804 19.2901ZM185.813 17.6392H189.229L187.521 12.7507L185.813 17.6392Z" fill="#C4C4CC"/>
<path d="M204.716 18.1967C204.597 19.4527 204.133 20.4349 203.324 21.1382C202.515 21.8415 201.439 22.1943 200.096 22.1943C199.158 22.1943 198.332 21.9722 197.616 21.5256C196.901 21.0814 196.35 20.4472 195.96 19.6279C195.573 18.8087 195.371 17.8562 195.353 16.7704V15.6698C195.353 14.5593 195.551 13.5797 195.943 12.7333C196.335 11.8868 196.903 11.2329 197.638 10.7739C198.374 10.3149 199.225 10.0854 200.192 10.0854C201.493 10.0854 202.539 10.4383 203.331 11.1416C204.123 11.8449 204.585 12.8418 204.716 14.1324H202.677C202.581 13.286 202.334 12.674 201.937 12.2989C201.54 11.9239 200.96 11.7363 200.192 11.7363C199.302 11.7363 198.618 12.062 198.142 12.7135C197.663 13.365 197.421 14.3175 197.409 15.576V16.6198C197.409 17.8932 197.636 18.8654 198.092 19.5366C198.549 20.2054 199.215 20.541 200.096 20.541C200.901 20.541 201.505 20.3609 201.91 19.9981C202.315 19.6354 202.571 19.0357 202.68 18.1942H204.718L204.716 18.1967Z" fill="#C4C4CC"/>
<path d="M216.482 11.9018H212.807V22.0341H210.776V11.9018H207.134V10.2509H216.482V11.9018Z" fill="#C4C4CC"/>
<path d="M222.759 10.2509H224.798V18.5127C224.798 19.6405 224.445 20.5362 223.741 21.2C223.038 21.8638 222.108 22.1945 220.953 22.1945C219.724 22.1945 218.774 21.8836 218.105 21.2642C217.436 20.6448 217.101 19.7811 217.101 18.6756H219.139C219.139 19.3024 219.295 19.7713 219.606 20.0871C219.916 20.403 220.366 20.5609 220.953 20.5609C221.503 20.5609 221.942 20.3783 222.268 20.0156C222.594 19.6503 222.757 19.1494 222.757 18.5053V10.2509H222.759Z" fill="#C4C4CC"/>
<path d="M234.952 18.9988C234.952 18.4806 234.77 18.0808 234.407 17.8019C234.044 17.5231 233.385 17.2393 232.435 16.9531C231.485 16.6668 230.73 16.3485 230.17 15.9981C229.096 15.3244 228.558 14.4434 228.558 13.3601C228.558 12.4101 228.946 11.6278 229.721 11.0134C230.496 10.3989 231.5 10.0904 232.736 10.0904C233.556 10.0904 234.286 10.241 234.93 10.5445C235.572 10.8456 236.078 11.2774 236.443 11.8351C236.81 12.3928 236.993 13.0122 236.993 13.6933H234.955C234.955 13.0788 234.762 12.5976 234.377 12.2497C233.992 11.9017 233.44 11.7265 232.721 11.7265C232.053 11.7265 231.532 11.8696 231.164 12.1559C230.794 12.4421 230.609 12.8419 230.609 13.3527C230.609 13.7846 230.809 14.1448 231.209 14.4336C231.609 14.7223 232.265 15.0036 233.183 15.275C234.101 15.5465 234.836 15.8574 235.392 16.2054C235.947 16.5533 236.354 16.9531 236.613 17.4022C236.872 17.8538 237 18.3794 237 18.984C237 19.9661 236.625 20.7459 235.873 21.3258C235.12 21.9057 234.098 22.1969 232.81 22.1969C231.956 22.1969 231.174 22.0389 230.459 21.7231C229.743 21.4072 229.188 20.9729 228.79 20.4152C228.393 19.86 228.196 19.211 228.196 18.4731H230.244C230.244 19.1419 230.466 19.6601 230.908 20.0278C231.349 20.3955 231.984 20.5781 232.81 20.5781C233.523 20.5781 234.056 20.435 234.417 20.1462C234.775 19.8575 234.955 19.475 234.955 19.0012L234.952 18.9988Z" fill="#C4C4CC"/>
<path d="M150.271 33.1458H145.313V0.569988H150.271V33.1458Z" fill="#00B37E"/>
</svg>
