<svg width="200" height="39" viewBox="0 0 200 39" fill="none" xmlns="http://www.w3.org/2000/svg">
<path d="M41.6729 11.8707C39.9902 11.8707 38.6027 13.2168 38.6027 14.9141V21.3519V27.7898H41.6729V21.3519V14.9141H45.3336H48.9942V11.8707H45.3336H41.6729V11.8707Z" fill="#E1E1E6"/>
<path d="M67.2992 19.8006V14.8844C67.2992 13.2164 65.9412 11.841 64.229 11.841H59.2694H54.3098C52.6271 11.841 51.2396 13.1871 51.2396 14.8844V19.8006V24.7167C51.2396 26.3847 52.5976 27.7601 54.3098 27.7601H59.2694H64.229C65.9117 27.7601 67.2992 26.414 67.2992 24.7167V19.8006ZM64.229 19.8006V24.7167H59.2694H54.3098V19.8006V14.8844H59.2694H64.229V19.8006Z" fill="#E1E1E6"/>
<path d="M73.4402 11.8707C71.7575 11.8707 70.37 13.2168 70.37 14.9141V19.8302V24.7464C70.37 26.4144 71.728 27.7898 73.4402 27.7898L84.245 27.6434V24.7464H73.4402V19.8302V14.9141H84.245V12.017L73.4402 11.8707Z" fill="#E1E1E6"/>
<path d="M101.842 11.8707H97.6795L91.5981 18.2793H90.3878V11.8707H87.3176V19.801V27.7605H90.3878V21.3226H91.9229H92.159L98.4766 27.7605H102.698L94.5798 19.4498L101.842 11.8707Z" fill="#E1E1E6"/>
<path d="M106.413 24.7167V21.3222L119.402 21.1759V18.2789V14.8844C119.402 13.2164 118.044 11.841 116.332 11.841H111.373H106.413C104.73 11.841 103.343 13.1871 103.343 14.8844V19.8006V24.7167C103.343 26.3847 104.701 27.7601 106.413 27.7601L119.402 27.6138V24.7167H106.413ZM106.413 14.8844H111.373H116.332V18.2789H112.908H106.413V14.8844V14.8844Z" fill="#E1E1E6"/>
<path d="M127.109 7.21988H125.928L124.039 9.53166V11.8434H121.706V14.8868L124.039 14.8575V24.7192C124.039 26.3871 125.397 27.7625 127.109 27.7625L132.068 27.6162V24.7192H127.109V14.8283L132.511 14.7405V11.8434H127.109V7.21988Z" fill="#E1E1E6"/>
<path d="M148.687 21.3222C148.687 19.6542 147.329 18.2789 145.616 18.2789H141.749H137.882V14.8844H148.687V11.9873L137.882 11.841C136.199 11.841 134.812 13.1871 134.812 14.8844V18.2789C134.812 19.9469 136.17 21.3222 137.882 21.3222H141.749H145.616V24.7167H134.812V27.6138L145.616 27.7601C147.299 27.7601 148.687 26.414 148.687 24.7167V21.3222Z" fill="#E1E1E6"/>
<path d="M164.715 11.8707H159.755H154.796C153.113 11.8707 151.726 13.2168 151.726 14.9141V19.8302V24.7464C151.726 26.4144 153.084 27.7898 154.796 27.7898L167.785 27.6434V24.7464H154.796V21.3519L167.785 21.2056V18.3086V14.9141C167.785 13.2168 166.427 11.8707 164.715 11.8707ZM164.715 18.2793H154.796V14.8848H159.755H164.715V18.2793V18.2793Z" fill="#E1E1E6"/>
<path d="M183.845 11.8707L170.856 12.017V14.9141H183.845V18.3086L170.856 18.4549V21.3519V24.7464C170.856 26.4144 172.214 27.7898 173.926 27.7898H178.886H183.845C185.528 27.7898 186.915 26.4437 186.915 24.7464V19.8302V14.9141C186.886 13.2168 185.528 11.8707 183.845 11.8707ZM183.845 24.7171H178.886H173.926V21.3226H183.845V24.7171V24.7171Z" fill="#E1E1E6"/>
<path d="M194.598 14.8278L200 14.74V11.843H194.598V7.19019H193.417L191.528 9.50197V11.8137H189.195V14.8571L191.528 14.8278V24.6895C191.528 26.3575 192.886 27.7328 194.598 27.7328L199.557 27.5865V24.6895H194.598V14.8278Z" fill="#E1E1E6"/>
<path d="M30.4846 1.45304L25.4955 0.721468C25.3479 0.692205 25.2003 0.750727 25.1413 0.809253L23.0158 3.55997C22.8682 3.73555 22.8386 3.96966 22.8977 4.1745C22.9567 4.37934 22.7796 4.55492 22.573 4.52566L20.8312 4.14523C20.5655 4.08671 20.2703 4.1745 20.0932 4.40861L13.1852 13.1875C13.0671 13.3631 12.831 13.4216 12.6243 13.3338L9.99692 12.1633C9.76075 12.0463 9.49506 12.0755 9.28841 12.2218L7.95996 13.129C7.75331 13.2753 7.45809 13.3046 7.22193 13.1875L6.57246 12.8656C6.15916 12.6608 5.6573 12.8949 5.53922 13.3338L5.06688 15.4115C4.94879 15.909 5.15544 16.4064 5.59826 16.6698L6.60198 17.2843L9.81979 19.2449L11.3844 20.2106C11.8272 20.474 12.3881 20.4155 12.7719 20.0936L15.3993 17.8111C15.6059 17.6355 15.9307 17.577 16.1669 17.7233L16.9639 18.133C17.2296 18.2793 17.5543 18.2207 17.761 18.0159L19.0894 16.7869C19.2961 16.582 19.6208 16.5528 19.857 16.6698L21.8349 17.577C22.1301 17.7233 22.4844 17.6355 22.691 17.3721L23.6062 16.2016L30.5437 7.39343C30.8684 6.98375 30.6618 6.36922 30.1304 6.25217L28.5953 5.90101C28.2705 5.84249 28.1229 5.43281 28.3591 5.1987L30.7503 2.24314C30.9865 1.89198 30.8389 1.51157 30.4846 1.45304Z" fill="#E1E1E6"/>
<path d="M7.60265 19.1851C7.45504 19.0974 7.30744 19.2437 7.36648 19.39L8.10451 21.3213C8.16355 21.4677 8.16355 21.614 8.13403 21.7603L7.48456 24.2769C7.45504 24.4525 7.51408 24.6281 7.63217 24.7158L9.492 26.1497C9.66913 26.2668 9.9053 26.2668 10.0529 26.1205L12.0013 24.4232C12.1194 24.3354 12.267 24.2769 12.3851 24.2476L14.5992 24.0135C14.7468 23.9843 14.8058 23.7794 14.6582 23.6916L7.60265 19.1851Z" fill="#E1E1E6"/>
<path d="M6.95357 25.6846C6.83549 25.5968 6.65836 25.5675 6.51076 25.626L4.94614 26.3869C4.85757 26.4161 4.79853 26.5039 4.73948 26.5917L1.40359 34.7561C1.40359 34.7854 1.40359 34.7853 1.40359 34.8146C1.43311 34.8439 1.46263 34.8731 1.52167 34.8731L2.28923 34.5805C2.31875 34.5805 2.34827 34.5805 2.37779 34.5805C2.40731 34.6098 2.43683 34.6683 2.40731 34.6976L0.0160913 38.5895C-0.0429511 38.6773 0.0751364 38.7651 0.134179 38.6773L8.78389 30.074C8.87246 29.9862 8.90198 29.8984 8.9315 29.7814L9.10862 27.5574C9.10862 27.4111 9.04958 27.294 8.96102 27.2062L6.95357 25.6846Z" fill="#E1E1E6"/>
</svg>
