<svg width="264" height="72" viewBox="0 0 264 72" fill="none" xmlns="http://www.w3.org/2000/svg">
<rect x="0.5" y="0.5" width="263" height="71" rx="3.5" fill="#121214"/>
<g opacity="0.8">
<path d="M46 35.08V36C45.9988 38.1564 45.3005 40.2547 44.0093 41.9818C42.7182 43.709 40.9033 44.9725 38.8354 45.5839C36.7674 46.1953 34.5573 46.1219 32.5345 45.3746C30.5117 44.6273 28.7847 43.2461 27.611 41.4371C26.4373 39.628 25.8798 37.4881 26.0217 35.3363C26.1636 33.1846 26.9972 31.1363 28.3983 29.4971C29.7994 27.8578 31.6928 26.7154 33.7962 26.2401C35.8996 25.7649 38.1003 25.9823 40.07 26.86" stroke="#00B37E" stroke-width="2" stroke-linecap="round" stroke-linejoin="round"/>
<path d="M46 28L36 38.01L33 35.01" stroke="#00B37E" stroke-width="2" stroke-linecap="round" stroke-linejoin="round"/>
<path d="M188 27H172C170.895 27 170 27.8954 170 29V39C170 40.1046 170.895 41 172 41H188C189.105 41 190 40.1046 190 39V29C190 27.8954 189.105 27 188 27Z" stroke="#81D8F7" stroke-width="2" stroke-linecap="round" stroke-linejoin="round"/>
<path d="M176 45H184" stroke="#81D8F7" stroke-width="2" stroke-linecap="round" stroke-linejoin="round"/>
<path d="M180 41V45" stroke="#81D8F7" stroke-width="2" stroke-linecap="round" stroke-linejoin="round"/>
<path d="M137 26H127C125.895 26 125 26.8954 125 28V44C125 45.1046 125.895 46 127 46H137C138.105 46 139 45.1046 139 44V28C139 26.8954 138.105 26 137 26Z" stroke="#81D8F7" stroke-width="2" stroke-linecap="round" stroke-linejoin="round"/>
<path d="M132 42H132.01" stroke="#81D8F7" stroke-width="2" stroke-linecap="round" stroke-linejoin="round"/>
<path d="M229 26L219 38H228L227 46L237 34H228L229 26Z" stroke="#FBA94C" stroke-width="2" stroke-linecap="round" stroke-linejoin="round"/>
<path d="M95 31L88 36L95 41V31Z" stroke="#F75A68" stroke-width="2" stroke-linecap="round" stroke-linejoin="round"/>
<path d="M86 29H75C73.8954 29 73 29.8954 73 31V41C73 42.1046 73.8954 43 75 43H86C87.1046 43 88 42.1046 88 41V31C88 29.8954 87.1046 29 86 29Z" stroke="#F75A68" stroke-width="2" stroke-linecap="round" stroke-linejoin="round"/>
</g>
<rect x="0.5" y="0.5" width="263" height="71" rx="3.5" stroke="#323238"/>
</svg>
